<svg width="16" height="16" viewBox="0 0 16 16" fill="none" xmlns="http://www.w3.org/2000/svg">
<mask id="mask0_114_103" style="mask-type:alpha" maskUnits="userSpaceOnUse" x="0" y="0" width="16" height="16">
<rect width="16" height="16" fill="#D9D9D9"/>
</mask>
<g mask="url(#mask0_114_103)">
<path d="M7.9976 11.1997C8.1666 11.1997 8.30944 11.1426 8.4261 11.0282C8.54277 10.9139 8.6011 10.7722 8.6011 10.6032C8.6011 10.4342 8.54394 10.2914 8.4296 10.1747C8.31527 10.0581 8.1736 9.99973 8.0046 9.99973C7.8356 9.99973 7.69277 10.0569 7.5761 10.1712C7.45944 10.2856 7.4011 10.4272 7.4011 10.5962C7.4011 10.7652 7.45827 10.9081 7.5726 11.0247C7.68694 11.1414 7.8286 11.1997 7.9976 11.1997ZM7.4011 8.79973H8.6011V4.79973H7.4011V8.79973ZM8.00577 14.3997C7.12488 14.3997 6.29555 14.2331 5.51777 13.8997C4.73999 13.5664 4.05944 13.1081 3.4761 12.5247C2.89277 11.9414 2.43444 11.2611 2.1011 10.4837C1.76777 9.7064 1.6011 8.87584 1.6011 7.99206C1.6011 7.10829 1.76777 6.28029 2.1011 5.50806C2.43444 4.73584 2.89277 4.05806 3.4761 3.47473C4.05944 2.8914 4.73977 2.43306 5.5171 2.09973C6.29444 1.7664 7.12499 1.59973 8.00877 1.59973C8.89255 1.59973 9.72055 1.7664 10.4928 2.09973C11.265 2.43306 11.9428 2.8914 12.5261 3.47473C13.1094 4.05806 13.5678 4.73706 13.9011 5.51173C14.2344 6.28651 14.4011 7.11429 14.4011 7.99506C14.4011 8.87595 14.2344 9.70529 13.9011 10.4831C13.5678 11.2608 13.1094 11.9414 12.5261 12.5247C11.9428 13.1081 11.2638 13.5664 10.4891 13.8997C9.71433 14.2331 8.88655 14.3997 8.00577 14.3997ZM8.0011 13.1997C9.44555 13.1997 10.6733 12.6942 11.6844 11.6831C12.6955 10.672 13.2011 9.44418 13.2011 7.99973C13.2011 6.55529 12.6955 5.32751 11.6844 4.3164C10.6733 3.30529 9.44555 2.79973 8.0011 2.79973C6.55666 2.79973 5.32888 3.30529 4.31777 4.3164C3.30666 5.32751 2.8011 6.55529 2.8011 7.99973C2.8011 9.44418 3.30666 10.672 4.31777 11.6831C5.32888 12.6942 6.55666 13.1997 8.0011 13.1997Z" fill="#D92D20"/>
</g>
</svg>
