<svg width="24" height="24" viewBox="0 0 24 24" fill="none" xmlns="http://www.w3.org/2000/svg">
<rect width="24" height="24" rx="9.6" fill="#0071BC"/>
<g clip-path="url(#clip0_2_936)">
<path d="M8.79352 8.29843C8.67273 8.28131 8.5515 8.32652 8.47142 8.41856C8.39134 8.51059 8.36332 8.63691 8.39697 8.75417L9.07552 11.1186C9.16411 11.4273 9.44643 11.64 9.76759 11.64H12.703C12.9018 11.64 13.063 11.8012 13.063 12C13.063 12.1988 12.9018 12.36 12.703 12.36H9.76759C9.44644 12.36 9.16412 12.5727 9.07553 12.8814L8.39697 15.2458C8.36332 15.3631 8.39134 15.4894 8.47142 15.5814C8.5515 15.6734 8.67273 15.7187 8.79352 15.7015C11.5957 15.3044 14.1291 14.073 16.1342 12.2675C16.21 12.1992 16.2533 12.102 16.2533 12C16.2533 11.898 16.21 11.8007 16.1342 11.7325C14.1291 9.927 11.5957 8.69559 8.79352 8.29843Z" fill="#FAFAFA"/>
</g>
<defs>
<clipPath id="clip0_2_936">
<rect width="9.6" height="9.6" fill="white" transform="translate(7.30298 7.20001)"/>
</clipPath>
</defs>
</svg>
