<svg width="18" height="18" viewBox="0 0 18 18" fill="none" xmlns="http://www.w3.org/2000/svg">
<path fill-rule="evenodd" clip-rule="evenodd" d="M16.675 5.58264V12.3751C16.675 14.8918 15.1 16.6668 12.5834 16.6668H5.37502C2.85835 16.6668 1.29169 14.8918 1.29169 12.3751V5.58264C1.29169 3.06598 2.86669 1.29181 5.37502 1.29181H12.5834C15.1 1.29181 16.675 3.06598 16.675 5.58264Z" stroke="#667085" stroke-width="1.25" stroke-linecap="round" stroke-linejoin="round"/>
<path opacity="0.4" d="M3.40112 12.6924L4.67446 11.3482C5.11696 10.879 5.85446 10.8565 6.32446 11.2982C6.33862 11.3124 7.10529 12.0915 7.10529 12.0915C7.56779 12.5624 8.32362 12.5699 8.79446 12.1082C8.82529 12.0782 10.7395 9.75653 10.7395 9.75653C11.2328 9.15736 12.1186 9.07153 12.7186 9.5657C12.7586 9.59903 14.567 11.4549 14.567 11.4549" stroke="#667085" stroke-width="1.25" stroke-linecap="round" stroke-linejoin="round"/>
<path opacity="0.4" fill-rule="evenodd" clip-rule="evenodd" d="M7.59387 6.6109C7.59387 7.4184 6.9397 8.07256 6.1322 8.07256C5.3247 8.07256 4.67053 7.4184 4.67053 6.6109C4.67053 5.8034 5.3247 5.14923 6.1322 5.14923C6.9397 5.15006 7.59387 5.8034 7.59387 6.6109Z" stroke="#667085" stroke-width="1.25" stroke-linecap="round" stroke-linejoin="round"/>
</svg>
