<svg width="16" height="16" viewBox="0 0 16 16" fill="none" xmlns="http://www.w3.org/2000/svg">
<mask id="mask0_114_98" style="mask-type:alpha" maskUnits="userSpaceOnUse" x="0" y="0" width="16" height="16">
<rect width="16" height="16" fill="#D9D9D9"/>
</mask>
<g mask="url(#mask0_114_98)">
<path d="M10.0029 3.39973C9.77949 3.39973 9.58999 3.32256 9.43444 3.16823C9.27888 3.01401 9.2011 2.82512 9.2011 2.60156C9.2011 2.37812 9.27827 2.18862 9.4326 2.03306C9.58683 1.87751 9.77572 1.79973 9.99927 1.79973C10.2227 1.79973 10.4122 1.8769 10.5678 2.03123C10.7233 2.18545 10.8011 2.37434 10.8011 2.5979C10.8011 2.82134 10.7239 3.01084 10.5696 3.1664C10.4154 3.32195 10.2265 3.39973 10.0029 3.39973ZM10.0029 14.1997C9.77949 14.1997 9.58999 14.1226 9.43444 13.9682C9.27888 13.814 9.2011 13.6251 9.2011 13.4016C9.2011 13.1781 9.27827 12.9886 9.4326 12.8331C9.58683 12.6775 9.77572 12.5997 9.99927 12.5997C10.2227 12.5997 10.4122 12.6769 10.5678 12.8312C10.7233 12.9855 10.8011 13.1743 10.8011 13.3979C10.8011 13.6213 10.7239 13.8108 10.5696 13.9664C10.4154 14.122 10.2265 14.1997 10.0029 14.1997ZM12.8029 5.79973C12.5795 5.79973 12.39 5.72256 12.2344 5.56823C12.0789 5.41401 12.0011 5.22512 12.0011 5.00156C12.0011 4.77812 12.0783 4.58862 12.2326 4.43306C12.3868 4.27751 12.5757 4.19973 12.7993 4.19973C13.0227 4.19973 13.2122 4.2769 13.3678 4.43123C13.5233 4.58545 13.6011 4.77434 13.6011 4.9979C13.6011 5.22134 13.5239 5.41084 13.3696 5.5664C13.2154 5.72195 13.0265 5.79973 12.8029 5.79973ZM12.8029 11.7997C12.5795 11.7997 12.39 11.7226 12.2344 11.5682C12.0789 11.414 12.0011 11.2251 12.0011 11.0016C12.0011 10.7781 12.0783 10.5886 12.2326 10.4331C12.3868 10.2775 12.5757 10.1997 12.7993 10.1997C13.0227 10.1997 13.2122 10.2769 13.3678 10.4312C13.5233 10.5855 13.6011 10.7743 13.6011 10.9979C13.6011 11.2213 13.5239 11.4108 13.3696 11.5664C13.2154 11.722 13.0265 11.7997 12.8029 11.7997ZM13.6029 8.79973C13.3795 8.79973 13.19 8.72256 13.0344 8.56823C12.8789 8.41401 12.8011 8.22512 12.8011 8.00156C12.8011 7.77812 12.8783 7.58862 13.0326 7.43306C13.1868 7.27751 13.3757 7.19973 13.5993 7.19973C13.8227 7.19973 14.0122 7.2769 14.1678 7.43123C14.3233 7.58545 14.4011 7.77434 14.4011 7.9979C14.4011 8.22134 14.3239 8.41084 14.1696 8.5664C14.0154 8.72195 13.8265 8.79973 13.6029 8.79973ZM8.0011 14.3997C7.1191 14.3997 6.29027 14.2331 5.5146 13.8997C4.73894 13.5664 4.05944 13.1081 3.4761 12.5247C2.89277 11.9414 2.43444 11.2611 2.1011 10.4837C1.76777 9.7064 1.6011 8.87584 1.6011 7.99206C1.6011 7.10829 1.76777 6.28029 2.1011 5.50806C2.43444 4.73584 2.89277 4.05806 3.4761 3.47473C4.05944 2.8914 4.73894 2.43306 5.5146 2.09973C6.29027 1.7664 7.1191 1.59973 8.0011 1.59973V2.79973C6.55666 2.79973 5.32888 3.30529 4.31777 4.3164C3.30666 5.32751 2.8011 6.55529 2.8011 7.99973C2.8011 9.44418 3.30666 10.672 4.31777 11.6831C5.32888 12.6942 6.55666 13.1997 8.0011 13.1997V14.3997ZM7.9976 9.19973C7.6666 9.19973 7.38444 9.08223 7.1511 8.84723C6.91777 8.61223 6.8011 8.32973 6.8011 7.99973V7.8414C6.8011 7.7914 6.81222 7.73862 6.83444 7.68306L5.6011 6.44973L6.4511 5.59973L7.68444 6.83306C7.7511 6.81084 7.85666 6.79973 8.0011 6.79973C8.3311 6.79973 8.6136 6.91756 8.8486 7.15323C9.0836 7.3889 9.2011 7.67223 9.2011 8.00323C9.2011 8.33423 9.08327 8.6164 8.8476 8.84973C8.61194 9.08306 8.3286 9.19973 7.9976 9.19973Z" fill="#475467"/>
</g>
</svg>
